# xmcd
#
# Track frame offsets: 
#        150
#        21640
#        42315
#        73891
#        96481
#        118375
#        147228
#        181535
#        196644
#        216162
#        248553
#        279683
#        299668
#
# Disc length: 4468 seconds
#
# Revision: 0
# Processed by: cddbd v1.5.2PL0 Copyright (c) Steve Scherf et al.
# Submitted via: ExactAudioCopy v0.99pb5
#
DISCID=d311720d
DTITLE=Yes  - Big Generator (2009,SHM-CD.WPCR-13528)
DYEAR=1900
DGENRE=
TTITLE0=Rhythm Of Love
TTITLE1=Big Generator
TTITLE2=Shoot High, Aim Low
TTITLE3=Almost Like Love
TTITLE4=Love Will Find A Way
TTITLE5=Final Eyes
TTITLE6=I'm Running
TTITLE7=Holy Lamb (Song For Harmonic Convergence)
TTITLE8=Love Will Find A Way (Edited Version)
TTITLE9=Love Will Find A Way (Extended Version)
TTITLE10=Rhythm Of Love (Dance To The Rhythm Mix)
TTITLE11=Rhythm Of Love (Move To The Rhythm Mix)
TTITLE12=Rhythm Of Love (The Rhythm Of Dub)
EXTD=
EXTT0=
EXTT1=
EXTT2=
EXTT3=
EXTT4=
EXTT5=
EXTT6=
EXTT7=
EXTT8=
EXTT9=
EXTT10=
EXTT11=
EXTT12=
PLAYORDER=
